# xmcd
#
# Track frame offsets: 
#        150
#        14650
#        29353
#        42187
#        54261
#        66603
#        79545
#        92164
#        107177
#        119231
#        132709
#        141086
#        164920
#        178142
#        191414
#        202248
#        217600
#        234617
#        248527
#        271441
#
# Disc length: 3795 seconds
#
# Revision: 1
# Processed by: cddbd v1.5.2PL0 Copyright (c) Steve Scherf et al.
# Submitted via: ExactAudioCopyFreeDBPlugin 1.0
#
DISCID=350ed114
DTITLE=Roosevelt Sykes, Son House - ABC Of The Blues - Vol. 41 Sykes, 
DTITLE=House
DYEAR=2010
DGENRE=Blues
TTITLE0=Roosevelt Sykes - 44 Blues
TTITLE1=Roosevelt Sykes - Under Eyed Woman
TTITLE2=Roosevelt Sykes - Knock Me Out
TTITLE3=Roosevelt Sykes - Trouble And Whiskey
TTITLE4=Roosevelt Sykes - Sykes Advice Blues
TTITLE5=Roosevelt Sykes - Training Camp Blues
TTITLE6=Roosevelt Sykes - Sugar Babe Blues
TTITLE7=Roosevelt Sykes - Jiving The Jive
TTITLE8=Roosevelt Sykes - Little Sam
TTITLE9=Roosevelt Sykes - The Honeydripper
TTITLE10=Son House - Am I Right Or Wrong
TTITLE11=Son House - The Pony Blues
TTITLE12=Son House - Walkin' Blues
TTITLE13=Son House - Depot Blues
TTITLE14=Son House - Country Farm Blues
TTITLE15=Son House - The Jinx Blues
TTITLE16=Son House - Levee Camp Blues
TTITLE17=Son House - Special Rider Blues
TTITLE18=Son House - Low Down Dirty Dog Blues
TTITLE19=Son House - American Defense
EXTD=
EXTT0=
EXTT1=
EXTT2=
EXTT3=
EXTT4=
EXTT5=
EXTT6=
EXTT7=
EXTT8=
EXTT9=
EXTT10=
EXTT11=
EXTT12=
EXTT13=
EXTT14=
EXTT15=
EXTT16=
EXTT17=
EXTT18=
EXTT19=
PLAYORDER=
